<?xml version="1.0" encoding="UTF-8"?>
<svg width="256px" height="256px" viewBox="0 0 256 256" version="1.1" xmlns="http://www.w3.org/2000/svg" xmlns:xlink="http://www.w3.org/1999/xlink">
    <title>phosphor-figma-in-plugin</title>
    <g id="phosphor-figma-in-plugin" stroke="none" stroke-width="1" fill="none" fill-rule="evenodd">
        <path d="M131.751886,167.385523 L78.4038511,167.385523 C78.4038511,196.849997 102.289263,220.733558 131.751886,220.733558 L131.751886,167.385523 Z" id="Fill-4" fill="#1FA647"></path>
        <polygon id="Fill-8" fill="#CE93FE" points="131.751886 60.6911193 131.751886 167.385338 78.4038511 60.6911193"></polygon>
        <path d="M131.751886,60.6911193 L138.420853,60.6911193 C167.883475,60.6911193 191.767037,84.574681 191.767037,114.039154 C191.767037,143.501777 167.883475,167.385338 138.420853,167.385338 L131.751886,167.385338 L131.751886,60.6911193 Z" id="Fill-12" fill="#925BFF"></path>
        <polygon id="Fill-16" fill="#F7AC49" points="78.4045913 167.385523 78.4045913 60.6913043 131.752626 167.385523"></polygon>
        <path d="M77.8883519,56.3719723 C78.1548522,56.3384385 78.4243493,56.3283088 78.6929126,56.3425111 L138.420853,56.3425976 C170.285407,56.3425976 196.115559,82.1733683 196.115559,114.039154 C196.115559,145.903399 170.285098,171.73386 138.420853,171.73386 L138.420853,171.73386 L136.099719,171.733271 L136.100408,220.733558 C136.100408,223.064545 134.266347,224.967163 131.962576,225.077065 L131.751886,225.08208 C99.8870253,225.08208 74.0553294,199.251003 74.0553294,167.385523 C74.0553294,167.371463 74.0553961,167.357419 74.0555293,167.34339 L74.0557242,60.9189361 C74.0410965,60.6438857 74.0533713,60.3710265 74.0905723,60.1035562 C74.2815411,58.5397099 75.2273168,57.4019926 76.4347444,56.8072418 C76.4537817,56.7980302 76.472777,56.7885641 76.4918592,56.7792323 C76.5074434,56.7722007 76.5228,56.7650097 76.538196,56.7579054 C76.935814,56.5683268 77.3708778,56.4376896 77.8347062,56.3784933 Z M127.403,171.734 L82.944,171.734 L82.9856698,172.197737 C85.2490399,195.418016 103.719834,213.888425 126.939756,216.151745 L126.939756,216.151745 L127.403,216.192 L127.403,171.734 Z M138.420853,65.039 L136.1,65.039 L136.1,163.036817 L138.420853,163.036817 C165.481853,163.036817 187.418515,141.100154 187.418515,114.039154 C187.418515,86.9765661 165.482116,65.039 138.420853,65.039 L138.420853,65.039 Z M82.7527188,79.1132706 L82.753,163.037 L124.714719,163.036271 L82.7527188,79.1132706 Z M127.403,65.039 L85.44,65.039 L127.333719,148.824271 L127.403,148.964 L127.403,65.039 Z" id="Combined-Shape" fill="#000000" fill-rule="nonzero"></path>
    </g>
</svg>